<svg xmlns="http://www.w3.org/2000/svg" version="1.1" xmlns:xlink="http://www.w3.org/1999/xlink" xmlns:svgjs="http://svgjs.com/svgjs" width="2000" height="1000" preserveAspectRatio="none" viewBox="0 0 2000 1000"><g mask="url(&quot;#SvgjsMask1276&quot;)" fill="none"><rect width="2000" height="1000" x="0" y="0" fill="#0e2a47"></rect><path d="M16 1000L1016 0L1403 0L403 1000z" fill="url(#SvgjsLinearGradient1277)"></path><path d="M662 1000L1662 0L2004 0L1004 1000z" fill="url(#SvgjsLinearGradient1277)"></path><path d="M1988 1000L988 0L614.5 0L1614.5 1000z" fill="url(#SvgjsLinearGradient1278)"></path><path d="M1337 1000L337 0L31 0L1031 1000z" fill="url(#SvgjsLinearGradient1278)"></path><path d="M1458.6406847404246 1000L2000 458.6406847404247L2000 1000z" fill="url(#SvgjsLinearGradient1277)"></path><path d="M0 1000L541.3593152595753 1000L 0 458.6406847404247z" fill="url(#SvgjsLinearGradient1278)"></path></g><defs><mask id="SvgjsMask1276"><rect width="2000" height="1000" fill="#ffffff"></rect></mask><linearGradient x1="0%" y1="100%" x2="100%" y2="0%" id="SvgjsLinearGradient1277"><stop stop-color="rgba(67, 88, 135, 0.23)" offset="0"></stop><stop stop-opacity="0" stop-color="rgba(67, 88, 135, 0.23)" offset="0.66"></stop></linearGradient><linearGradient x1="100%" y1="100%" x2="0%" y2="0%" id="SvgjsLinearGradient1278"><stop stop-color="rgba(67, 88, 135, 0.23)" offset="0"></stop><stop stop-opacity="0" stop-color="rgba(67, 88, 135, 0.23)" offset="0.66"></stop></linearGradient></defs></svg>