<svg xmlns="http://www.w3.org/2000/svg" version="1.1" xmlns:xlink="http://www.w3.org/1999/xlink" xmlns:svgjs="http://svgjs.com/svgjs" width="3000" height="2000" preserveAspectRatio="none" viewBox="0 0 3000 2000"><g mask="url(&quot;#SvgjsMask1024&quot;)" fill="none"><rect width="3000" height="2000" x="0" y="0" fill="url(#SvgjsLinearGradient1025)"></rect><path d="M1700 981L1699 1782" stroke-width="6" stroke="url(#SvgjsLinearGradient1026)" stroke-linecap="round" class="Down"></path><path d="M1842 1998L1841 3242" stroke-width="10" stroke="url(#SvgjsLinearGradient1026)" stroke-linecap="round" class="Down"></path><path d="M298 909L297 144" stroke-width="8" stroke="url(#SvgjsLinearGradient1026)" stroke-linecap="round" class="Down"></path><path d="M1076 1105L1075 439" stroke-width="6" stroke="url(#SvgjsLinearGradient1026)" stroke-linecap="round" class="Down"></path><path d="M1642 1471L1641 194" stroke-width="10" stroke="url(#SvgjsLinearGradient1026)" stroke-linecap="round" class="Down"></path><path d="M2066 301L2065 -353" stroke-width="6" stroke="url(#SvgjsLinearGradient1026)" stroke-linecap="round" class="Down"></path><path d="M554 611L553 -683" stroke-width="6" stroke="url(#SvgjsLinearGradient1026)" stroke-linecap="round" class="Down"></path><path d="M1974 137L1973 -919" stroke-width="10" stroke="url(#SvgjsLinearGradient1027)" stroke-linecap="round" class="Up"></path><path d="M1461 1975L1460 1382" stroke-width="8" stroke="url(#SvgjsLinearGradient1026)" stroke-linecap="round" class="Down"></path><path d="M1840 1156L1839 2627" stroke-width="8" stroke="url(#SvgjsLinearGradient1026)" stroke-linecap="round" class="Down"></path><path d="M1048 1115L1047 423" stroke-width="8" stroke="url(#SvgjsLinearGradient1026)" stroke-linecap="round" class="Down"></path><path d="M174 1920L173 3052" stroke-width="8" stroke="url(#SvgjsLinearGradient1026)" stroke-linecap="round" class="Down"></path><path d="M642 1209L641 2456" stroke-width="10" stroke="url(#SvgjsLinearGradient1027)" stroke-linecap="round" class="Up"></path><path d="M2862 1169L2861 361" stroke-width="6" stroke="url(#SvgjsLinearGradient1027)" stroke-linecap="round" class="Up"></path><path d="M1930 1553L1929 893" stroke-width="8" stroke="url(#SvgjsLinearGradient1027)" stroke-linecap="round" class="Up"></path><path d="M70 163L69 -1334" stroke-width="6" stroke="url(#SvgjsLinearGradient1026)" stroke-linecap="round" class="Down"></path><path d="M565 286L564 -548" stroke-width="10" stroke="url(#SvgjsLinearGradient1027)" stroke-linecap="round" class="Up"></path><path d="M685 806L684 -15" stroke-width="8" stroke="url(#SvgjsLinearGradient1026)" stroke-linecap="round" class="Down"></path><path d="M1766 132L1765 1099" stroke-width="10" stroke="url(#SvgjsLinearGradient1027)" stroke-linecap="round" class="Up"></path><path d="M2783 536L2782 -888" stroke-width="8" stroke="url(#SvgjsLinearGradient1027)" stroke-linecap="round" class="Up"></path><path d="M1859 1759L1858 662" stroke-width="6" stroke="url(#SvgjsLinearGradient1026)" stroke-linecap="round" class="Down"></path><path d="M665 531L664 -820" stroke-width="10" stroke="url(#SvgjsLinearGradient1027)" stroke-linecap="round" class="Up"></path><path d="M2289 645L2288 1446" stroke-width="10" stroke="url(#SvgjsLinearGradient1026)" stroke-linecap="round" class="Down"></path><path d="M1455 1025L1454 -426" stroke-width="8" stroke="url(#SvgjsLinearGradient1026)" stroke-linecap="round" class="Down"></path><path d="M385 1032L384 2302" stroke-width="6" stroke="url(#SvgjsLinearGradient1027)" stroke-linecap="round" class="Up"></path><path d="M1812 1271L1811 -136" stroke-width="8" stroke="url(#SvgjsLinearGradient1026)" stroke-linecap="round" class="Down"></path><path d="M2080 737L2079 2070" stroke-width="6" stroke="url(#SvgjsLinearGradient1026)" stroke-linecap="round" class="Down"></path><path d="M1926 1804L1925 2490" stroke-width="6" stroke="url(#SvgjsLinearGradient1027)" stroke-linecap="round" class="Up"></path><path d="M1041 1295L1040 2232" stroke-width="6" stroke="url(#SvgjsLinearGradient1027)" stroke-linecap="round" class="Up"></path><path d="M2916 1586L2915 816" stroke-width="8" stroke="url(#SvgjsLinearGradient1027)" stroke-linecap="round" class="Up"></path><path d="M11 1051L10 444" stroke-width="8" stroke="url(#SvgjsLinearGradient1027)" stroke-linecap="round" class="Up"></path><path d="M233 86L232 -908" stroke-width="6" stroke="url(#SvgjsLinearGradient1026)" stroke-linecap="round" class="Down"></path><path d="M963 1871L962 3349" stroke-width="8" stroke="url(#SvgjsLinearGradient1026)" stroke-linecap="round" class="Down"></path><path d="M2756 1033L2755 2263" stroke-width="6" stroke="url(#SvgjsLinearGradient1026)" stroke-linecap="round" class="Down"></path><path d="M2269 283L2268 -1137" stroke-width="6" stroke="url(#SvgjsLinearGradient1027)" stroke-linecap="round" class="Up"></path><path d="M2962 322L2961 -956" stroke-width="10" stroke="url(#SvgjsLinearGradient1027)" stroke-linecap="round" class="Up"></path><path d="M2120 1675L2119 2964" stroke-width="6" stroke="url(#SvgjsLinearGradient1027)" stroke-linecap="round" class="Up"></path><path d="M605 1522L604 2883" stroke-width="8" stroke="url(#SvgjsLinearGradient1027)" stroke-linecap="round" class="Up"></path><path d="M501 947L500 -440" stroke-width="6" stroke="url(#SvgjsLinearGradient1026)" stroke-linecap="round" class="Down"></path><path d="M665 53L664 -490" stroke-width="8" stroke="url(#SvgjsLinearGradient1027)" stroke-linecap="round" class="Up"></path><path d="M1871 1775L1870 592" stroke-width="10" stroke="url(#SvgjsLinearGradient1027)" stroke-linecap="round" class="Up"></path><path d="M1841 1669L1840 701" stroke-width="8" stroke="url(#SvgjsLinearGradient1027)" stroke-linecap="round" class="Up"></path><path d="M838 1058L837 2326" stroke-width="6" stroke="url(#SvgjsLinearGradient1027)" stroke-linecap="round" class="Up"></path><path d="M2696 1794L2695 3055" stroke-width="6" stroke="url(#SvgjsLinearGradient1026)" stroke-linecap="round" class="Down"></path><path d="M1172 1269L1171 1817" stroke-width="6" stroke="url(#SvgjsLinearGradient1026)" stroke-linecap="round" class="Down"></path><path d="M830 760L829 -216" stroke-width="10" stroke="url(#SvgjsLinearGradient1027)" stroke-linecap="round" class="Up"></path><path d="M2571 776L2570 1297" stroke-width="8" stroke="url(#SvgjsLinearGradient1027)" stroke-linecap="round" class="Up"></path><path d="M225 1438L224 2714" stroke-width="6" stroke="url(#SvgjsLinearGradient1026)" stroke-linecap="round" class="Down"></path><path d="M1323 275L1322 1443" stroke-width="10" stroke="url(#SvgjsLinearGradient1026)" stroke-linecap="round" class="Down"></path><path d="M2271 27L2270 607" stroke-width="10" stroke="url(#SvgjsLinearGradient1026)" stroke-linecap="round" class="Down"></path><path d="M1306 1298L1305 563" stroke-width="8" stroke="url(#SvgjsLinearGradient1027)" stroke-linecap="round" class="Up"></path><path d="M1391 1945L1390 3022" stroke-width="8" stroke="url(#SvgjsLinearGradient1027)" stroke-linecap="round" class="Up"></path><path d="M2048 1403L2047 377" stroke-width="6" stroke="url(#SvgjsLinearGradient1027)" stroke-linecap="round" class="Up"></path><path d="M1980 517L1979 1540" stroke-width="6" stroke="url(#SvgjsLinearGradient1026)" stroke-linecap="round" class="Down"></path><path d="M159 390L158 1389" stroke-width="8" stroke="url(#SvgjsLinearGradient1027)" stroke-linecap="round" class="Up"></path><path d="M1010 944L1009 1649" stroke-width="8" stroke="url(#SvgjsLinearGradient1026)" stroke-linecap="round" class="Down"></path><path d="M2386 246L2385 1043" stroke-width="6" stroke="url(#SvgjsLinearGradient1026)" stroke-linecap="round" class="Down"></path><path d="M572 976L571 1701" stroke-width="8" stroke="url(#SvgjsLinearGradient1026)" stroke-linecap="round" class="Down"></path><path d="M2953 1288L2952 2232" stroke-width="10" stroke="url(#SvgjsLinearGradient1026)" stroke-linecap="round" class="Down"></path><path d="M2834 508L2833 1443" stroke-width="6" stroke="url(#SvgjsLinearGradient1026)" stroke-linecap="round" class="Down"></path><path d="M712 944L711 2005" stroke-width="6" stroke="url(#SvgjsLinearGradient1027)" stroke-linecap="round" class="Up"></path><path d="M2720 1962L2719 678" stroke-width="10" stroke="url(#SvgjsLinearGradient1026)" stroke-linecap="round" class="Down"></path><path d="M2346 625L2345 -301" stroke-width="10" stroke="url(#SvgjsLinearGradient1027)" stroke-linecap="round" class="Up"></path><path d="M726 1732L725 774" stroke-width="10" stroke="url(#SvgjsLinearGradient1026)" stroke-linecap="round" class="Down"></path><path d="M1767 1751L1766 1233" stroke-width="8" stroke="url(#SvgjsLinearGradient1026)" stroke-linecap="round" class="Down"></path><path d="M1665 1981L1664 3409" stroke-width="6" stroke="url(#SvgjsLinearGradient1026)" stroke-linecap="round" class="Down"></path><path d="M1577 361L1576 910" stroke-width="6" stroke="url(#SvgjsLinearGradient1026)" stroke-linecap="round" class="Down"></path><path d="M864 1516L863 2793" stroke-width="10" stroke="url(#SvgjsLinearGradient1026)" stroke-linecap="round" class="Down"></path><path d="M1164 1410L1163 2492" stroke-width="10" stroke="url(#SvgjsLinearGradient1027)" stroke-linecap="round" class="Up"></path><path d="M2470 317L2469 -184" stroke-width="6" stroke="url(#SvgjsLinearGradient1026)" stroke-linecap="round" class="Down"></path><path d="M2725 1889L2724 796" stroke-width="8" stroke="url(#SvgjsLinearGradient1027)" stroke-linecap="round" class="Up"></path><path d="M68 336L67 1322" stroke-width="8" stroke="url(#SvgjsLinearGradient1027)" stroke-linecap="round" class="Up"></path><path d="M2499 676L2498 1358" stroke-width="8" stroke="url(#SvgjsLinearGradient1027)" stroke-linecap="round" class="Up"></path><path d="M1316 1126L1315 2466" stroke-width="6" stroke="url(#SvgjsLinearGradient1026)" stroke-linecap="round" class="Down"></path><path d="M1549 1332L1548 2133" stroke-width="8" stroke="url(#SvgjsLinearGradient1026)" stroke-linecap="round" class="Down"></path></g><defs><mask id="SvgjsMask1024"><rect width="3000" height="2000" fill="#ffffff"></rect></mask><linearGradient x1="50%" y1="0%" x2="50%" y2="100%" gradientUnits="userSpaceOnUse" id="SvgjsLinearGradient1025"><stop stop-color="#0e2a47" offset="0"></stop><stop stop-color="rgba(0, 0, 0, 1)" offset="1"></stop></linearGradient><linearGradient x1="0%" y1="0%" x2="0%" y2="100%" id="SvgjsLinearGradient1026"><stop stop-color="rgba(70, 130, 180, 0)" offset="0"></stop><stop stop-color="rgba(70, 130, 180, 1)" offset="1"></stop></linearGradient><linearGradient x1="0%" y1="100%" x2="0%" y2="0%" id="SvgjsLinearGradient1027"><stop stop-color="rgba(70, 130, 180, 0)" offset="0"></stop><stop stop-color="rgba(70, 130, 180, 1)" offset="1"></stop></linearGradient></defs></svg>